{"title":"The.Railway.Man.2013.BRRip.x264.AC3-MiLLENiUM","uid":10000011,"size":1095865785,"categoryP":"video","categoryS":"movies","magnet":"?xt=urn:btih:2783c2d9b9024396d1fd5cf264308670d3b48609&amp;dn=The.Railway.Man.2013.BRRip.x264.AC3-MiLLENiUM&amp;tr=udp%3A%2F%2Ftracker.openbittorrent.com%3A80&amp;tr=udp%3A%2F%2Fopen.demonii.com%3A1337&amp;tr=udp%3A%2F%2Ftracker.coppersurfer.tk%3A6969&amp;tr=udp%3A%2F%2Fexodus.desync.com%3A6969","seeders":1,"leechers":0,"uploader":"Thhaque","files":-1,"time":1397971776,"description":"[IMG]http://s1.postimg.org/92r9x0egf/MV5_BMTQz_NDU1_Nj_E0_NF5_BMl5_Ban_Bn_Xk_Ft_ZTgw_ODA3_NDcz_MDE.jpg[/IMG]\n       \n[color=red][b]The Railway Man 2013 BRRip x264 AC3-MiLLENiUM[/b][/color]                  \n\n[color=red]General[/color]\n\nSource...............: 720p BluRay DTS X264-AMIABLE [THANKS]\nIMDb Information.... : http://www.imdb.com/title/tt2058107/\nSample Included......: yes\n\nGeneral\nComplete name                            : The Railway Man 2013 BRRip x264 AC3-MiLLENiUM.mkv\nFormat                                   : Matroska\nFormat version                           : Version 2\nFile size                                : 1.02 GiB\nDuration                                 : 1h 56mn\nOverall bit rate mode                    : Variable\nOverall bit rate                         : 1 256 Kbps\nEncoded date                             : UTC 2014-04-19 13:52:26\nWriting application                      : mkvmerge v6.8.0 ('Theme for Great Cities') 32bit built on Mar  2 2014 21:27:07\nWriting library                          : libebml v1.3.0 + libmatroska v1.4.1\n\nVideo\nID                                       : 1\nFormat                                   : AVC\nFormat/Info                              : Advanced Video Codec\nFormat profile                           : &lt;a class=&quot;__cf_email__&quot; href=&quot;/cdn-cgi/l/email-protection&quot; data-cfemail=&quot;cb83a2aca38b87ffe5fa&quot;&gt;[email&amp;#160;protected]&lt;/a&gt;&lt;script cf-hash='f9e31' type=&quot;text/javascript&quot;&gt;\n/* &lt;![CDATA[ */!function(){try{var t=&quot;currentScript&quot;in document?document.currentScript:function(){for(var t=document.getElementsByTagName(&quot;script&quot;),e=t.length;e--;)if(t[e].getAttribute(&quot;cf-hash&quot;))return t[e]}();if(t&amp;&amp;t.previousSibling){var e,r,n,i,c=t.previousSibling,a=c.getAttribute(&quot;data-cfemail&quot;);if(a){for(e=&quot;&quot;,r=parseInt(a.substr(0,2),16),n=2;a.length-n;n+=2)i=parseInt(a.substr(n,2),16)^r,e+=String.fromCharCode(i);e=document.createTextNode(e),c.parentNode.replaceChild(e,c)}}}catch(u){}}();/* ]]&gt; */&lt;/script&gt;\nFormat settings, CABAC                   : Yes\nFormat settings, ReFrames                : 3 frames\nCodec ID                                 : V_MPEG4/ISO/AVC\nDuration                                 : 1h 56mn\nBit rate mode                            : Variable\nBit rate                                 : 783 Kbps\nMaximum bit rate                         : 40.0 Mbps\nWidth                                    : 720 pixels\nHeight                                   : 304 pixels\nDisplay aspect ratio                     : 2.35:1\nFrame rate mode                          : Constant\nFrame rate                               : 23.976 fps\nColor space                              : YUV\nChroma subsampling                       : 4:2:0\nBit depth                                : 8 bits\nScan type                                : Progressive\nBits/(Pixel*Frame)                       : 0.149\nStream size                              : 652 MiB (62%)\nWriting library                          : x264 core 142 r2409 d6b4e63\n\nAudio\nID                                       : 2\nFormat                                   : AC-3\nFormat/Info                              : Audio Coding 3\nMode extension                           : CM (complete main)\nFormat settings, Endianness              : Big\nCodec ID                                 : A_AC3\nDuration                                 : 1h 56mn\nBit rate mode                            : Constant\nBit rate                                 : 448 Kbps\nChannel(s)                               : 6 channels\nChannel positions                        : Front: L C R, Side: L R, LFE\nSampling rate                            : 48.0 KHz\nBit depth                                : 16 bits\nCompression mode                         : Lossy\nStream size                              : 373 MiB (36%)\nLanguage                                 : English\nDefault                                  : Yes\nForced                                   : No\n\n[color=red]Plot[/color]\n\nA former British Army officer, who was tormented as a prisoner of war at a Japanese labor camp during World War II, discovers that the man responsible for much of his treatment is still alive and sets out to confront him.\n \n[color=red]Screenshots[/color]\n &lt;a href=&quot;\nhttp://s30.postimg.org/udkw53vm9/vlcsnap_2014_04_19_14h55m01s179.png&quot; rel=&quot;nofollow&quot; target=&quot;_NEW&quot;&gt;\nhttp://s30.postimg.org/udkw53vm9/vlcsnap_2014_04_19_14h55m01s179.png&lt;/a&gt;\n &lt;a href=&quot;\nhttp://s30.postimg.org/qfxmfp8sx/vlcsnap_2014_04_19_14h55m12s33.png&quot; rel=&quot;nofollow&quot; target=&quot;_NEW&quot;&gt;\nhttp://s30.postimg.org/qfxmfp8sx/vlcsnap_2014_04_19_14h55m12s33.png&lt;/a&gt;\n &lt;a href=&quot;\nhttp://s30.postimg.org/bg59rurwx/vlcsnap_2014_04_19_14h55m49s141.png&quot; rel=&quot;nofollow&quot; target=&quot;_NEW&quot;&gt;\nhttp://s30.postimg.org/bg59rurwx/vlcsnap_2014_04_19_14h55m49s141.png&lt;/a&gt;\n &lt;a href=&quot;\nhttp://s30.postimg.org/6k1n05rrl/vlcsnap_2014_04_19_14h56m20s200.png&quot; rel=&quot;nofollow&quot; target=&quot;_NEW&quot;&gt;\nhttp://s30.postimg.org/6k1n05rrl/vlcsnap_2014_04_19_14h56m20s200.png&lt;/a&gt;\n &lt;a href=&quot;\nhttp://s30.postimg.org/6vj3cx87l/vlcsnap_2014_04_19_14h56m26s250.png&quot; rel=&quot;nofollow&quot; target=&quot;_NEW&quot;&gt;\nhttp://s30.postimg.org/6vj3cx87l/vlcsnap_2014_04_19_14h56m26s250.png&lt;/a&gt;","torrent":{"xt":"urn:btih:2783c2d9b9024396d1fd5cf264308670d3b48609","amp;dn":"The.Railway.Man.2013.BRRip.x264.AC3-MiLLENiUM","amp;tr":["udp%3A%2F%2Ftracker.openbittorrent.com%3A80","udp%3A%2F%2Fopen.demonii.com%3A1337","udp%3A%2F%2Ftracker.coppersurfer.tk%3A6969","udp%3A%2F%2Fexodus.desync.com%3A6969"],"infoHash":"2783c2d9b9024396d1fd5cf264308670d3b48609","infoHashBuffer":{"type":"Buffer","data":[39,131,194,217,185,2,67,150,209,253,92,242,100,48,134,112,211,180,134,9]},"announce":[],"urlList":[]}}